<!DOCTYPE svg PUBLIC "-//W3C//DTD SVG 1.1//EN" "http://www.w3.org/Graphics/SVG/1.1/DTD/svg11.dtd">
<!-- Uploaded to: SVG Repo, www.svgrepo.com, Transformed by: SVG Repo Mixer Tools -->
<svg fill="#ffffff" width="199px" height="199px" viewBox="-3.2 -3.2 22.40 22.40" xmlns="http://www.w3.org/2000/svg" stroke="#ffffff">
<g id="SVGRepo_bgCarrier" stroke-width="0"/>
<g id="SVGRepo_tracerCarrier" stroke-linecap="round" stroke-linejoin="round"/>
<g id="SVGRepo_iconCarrier"> <path d="M5.843 6.05l2.121 2.122 2.122-2.122L11.5 7.464 7.964 11 4.43 7.464 5.843 6.05zM16 8c0 4.418-3.59 8-8 8-4.418 0-8-3.59-8-8 0-4.418 3.59-8 8-8 4.418 0 8 3.59 8 8zm-2 0c0-3.307-2.686-6-6-6-3.307 0-6 2.686-6 6 0 3.307 2.686 6 6 6 3.307 0 6-2.686 6-6z" fill-rule="evenodd"/> </g>
</svg>