<?xml version="1.0" encoding="UTF-8"?>
<svg id="Layer_2" data-name="Layer 2" xmlns="http://www.w3.org/2000/svg" viewBox="0 0 1700.98 1167.07">
  <defs>
    <style>
      .cls-1 {
        fill: none;
        stroke: #fff;
        stroke-miterlimit: 10;
        stroke-width: 32.53px;
      }
    </style>
  </defs>
  <g>
    <path class="cls-1" d="M816.23,895.86c-9.99,15.8-44.7,66.27-105.63,78.07-9.42,1.83-62.55,12.12-84.96-14.93-11.43-13.79-3.71-24.11-16.07-40.18-18.03-23.44-51.77-25.84-75.78-27.56-25.78-1.84-43.84,2.56-75.78,10.33-32.57,7.93-48.99,12.14-55.11,24.11-9.3,18.18,2.39,46.1,19.52,60.85,35.24,30.34,95.87,6.95,107.92,2.3,61.48-23.72,91.58-77.15,120.55-128.59,25.98-46.12,40.72-72.29,29.85-90.7-14.28-24.2-56.56-7.56-173.37-9.19-88.37-1.23-109.67-11.38-163.03,3.44-42.66,11.85-71.82,30.21-93,53.96-13.04,14.62-31.84,35.71-29.85,63.15,3,41.32,50.76,64.03,58.55,67.74,51.13,24.32,102.64,2.18,112.52-2.3"/>
    <path class="cls-1" d="M755.38,799.42c-.79,10.81-3.24,25.48-10.33,41.33-15.91,35.53-44.6,53.33-56.26,59.7"/>
    <path class="cls-1" d="M680.63,977.31c-47.2,21.58-70.82,48.51-83.69,70.1-18.84,31.59-13.32,49.44-36.74,72.33-32.85,32.12-78.75,31.25-86.11,31-16.18-.55-44.02-1.48-57.41-18.37-19.61-24.75-5.19-80.03,43.38-130.96"/>
    <path class="cls-1" d="M226.63,900.63c-4.83-7.98-54.49-93.04-14.31-180.43,35.78-77.82,115.79-98.67,142.37-105.63,67.77-17.75,122.59,.4,166.48,14.93,39.69,13.14,93.6,30.98,124,82.67,10.23,17.39,15.03,33.91,17.49,45.69"/>
    <path class="cls-1" d="M605.69,668.7c-14.31-2-108.52-13.68-167.19,49.19-13.5,14.47-22.56,30.14-28.7,44.78"/>
    <path class="cls-1" d="M207.71,873.95c-37.77-12.65-84.81-35.85-105-81-8.99-20.11-5.1-27.67-10-59-16.78-107.23-82.06-144.23-61.8-187.12,12.33-26.09,40.18-20.24,55.11-53.96,8.09-18.27,8.17-38.65,0-71.18C62.16,326.63,6.63,281.97,17.71,267.95c10.31-13.04,57.97,26.07,149,40,61.73,9.45,69.62-5.08,114,2,120.51,19.22,167.21,141.67,198,127,31.45-14.98,21.57-161.23-29-286-19.24-47.47-41.2-86.32-25-110,10.42-15.23,31.43-10.18,112-10,80.88,.19,121.32,.28,152-4,52.51-7.32,83.73-19.34,102-1,10.21,10.25,12.06,25.64,14.03,42.11,3.96,33-9.04,42.46-2.3,70.04,3.74,15.28,13.6,40.95,26.41,41.33,8.51,.25,12.23-10.83,33.3-40.18,19.83-27.62,30-41.47,42.48-43.63,17.5-3.02,36.25,10.96,45.92,24.11,16.97,23.07,4.09,40.98,19.52,58.55,14.36,16.36,43.74,21.61,65.44,11.48,35.32-16.48,34.54-63.7,34.44-66.59-1.5-43.65-42.09-74.34-72.25-86.22-23.74-9.35-38.61-5.78-83-5-29.02,.51-71.49-.11-124-6"/>
    <path class="cls-1" d="M750.78,653.6c-3.25,11.94-6.86,32.1-1.15,55.11,6.7,26.99,22.88,44.34,31,52.81,94.18,98.31,131.14,115.66,132.08,144.42,2.17,66.98-193.73,114.35-186,144,3,11.52,34.72,11.59,84,14,43.98,2.15,94.51,4.62,151-14,70.73-23.31,67.52-52.23,124-64,50.9-10.6,71.14,8.44,137,14,63.01,5.32,95.98-7.69,176-24,172.63-35.18,286.19-29.08,286-37-.4-16.96-520.02-25.87-520.6-56.87-.14-7.75,32.67-13.7,33.3-32.15,.61-18.05-25.94-31.82-31-34.44-52.5-27.24-94.05,13.68-130.89-12.63-7.33-5.24-16.75-21.1-35.59-52.81-16.4-27.61-15.49-29.98-27.56-49.37-24.48-39.32-39.33-63.18-63.68-68.09-22.05-4.45-25.31,12.01-60.27,11.79-8.04-.05-37.46-.64-64.34-20.62-4.11-3.05-17.44-13.46-27.95-31.43-10.24-17.52-8.51-26.31-14.53-37.45-10.92-20.22-37.73-23.85-66.59-33.3-57.22-18.74-112.18-8.92-189.44,5.74-56.28,10.68-90.89,22.81-120.55,2.3-12.58-8.7-19.89-20.24-24.11-28.7"/>
    <path class="cls-1" d="M742.75,503.2c-9.94,46.99,6.3,94.63,41.33,120.55,45.83,33.92,117.7,26.14,161.89-24.11"/>
    <path class="cls-1" d="M127.35,556.01c3.2,8.28,8.99,20.26,19.52,32.15,17.79,20.11,42.31,22.77,41.33,28.7-.95,5.76-22.77,1.07-37.89,13.78-11.94,10.04-14.47,26.53-14.93,37.89"/>
    <path class="cls-1" d="M615.3,186.32c29.38,14.51,37.44,28.96,39.21,39.67,1.98,11.99-4.04,18.66,.98,28.07,6.49,12.19,24.06,14.41,40.18,17.22,20.67,3.61,30.5,.07,50.52,0,19.11-.07,33.02,3.4,60.85,10.33,59.95,14.94,89.92,22.42,102.18,43.63,13.38,23.14-1.12,40.56,14.93,59.7,9.99,11.93,20.66,11.17,57.41,19.52,0,0,61.97,14.07,124,42.48,28.7,13.15,35.27,19.25,37.89,21.81,23.25,22.8,13.64,40.6,33.3,74.63,11.7,20.26,29.23,36.09,64.3,67.74,21.16,19.1,31.13,25.6,35.59,41.33,5.13,18.08-.96,34.48-8.04,52.81-11.95,30.94-23.5,39.34-40.18,67.74-19.58,33.34-38.5,65.56-27.56,83.81,15.68,26.16,92.78,23.78,124-11.48,10-11.3,10.55-20.62,24.11-28.7,21.93-13.07,38.62,.5,62-8.04,17.58-6.42,21.29-18.89,44.78-52.81,19.78-28.57,22.3-35.09,26.48-34.44,16.82,2.63-14.15,111.87,40.49,168.6,23.45,24.34,63.56,39.96,91,27,24.78-11.7,32.73-43.61,38-73,20.12-112.14,2.37-193.42-2-280-1.51-29.9,.97-13.09,13-198,17.84-274.12,10.96-288.89-1-301-48.8-49.45-128.68-.49-436-6-17.26-.31-31.31-.72-40-1"/>
    <polyline class="cls-1" points="1531.09 612.56 1575.34 639.22 1603.19 593"/>
    <path class="cls-1" d="M461.71,192.95c4.04,13.27,22.69,72.97,53.71,119.66,24.34,36.63,45.58,48.84,56.84,54.44,1.5,.75,2.83,1.33,4.01,1.82,27.04,11.31,51.44,8.18,88.41,3.44,46.15-5.91,68.56-13,74.63-25.26,9.87-19.95-4.94-52.26-34.44-79.22"/>
    <path class="cls-1" d="M1315.71,336.95c14.14,15.08,26.21,20.6,34.82,22.77,1.03,.26,6.17,1.76,16.66,3.73,10.38,1.95,14.14,1.86,21.26,4.71,18.95,7.59,29.47,23.17,33.3,28.7,14.87,21.54,8.1,35.64,18.37,48.22,8.3,10.17,27.43,19.22,76.92,9.18"/>
    <path class="cls-1" d="M259.39,498.61c-.23-17.8,1.7-46.79,14.93-79.22,17.65-43.27,45.96-69.5,60.85-81.52"/>
    <path class="cls-1" d="M568.23,429.72c14.23-27.6,33.22-38.54,41.33-42.48,37.18-18.06,82.97-4.46,106.78,11.48,5,3.35,15.28,10.99,32.15,20.67,13.23,7.59,20.67,11.86,29.85,14.93,23.43,7.81,32.58-.8,51.67,2.3,26.03,4.23,30.57,23.74,65.44,51.67,31.51,25.23,36.07,15.91,65.44,37.89,53.7,40.18,52.31,81.67,86.11,89.55,23.56,5.49,36.32-31.6,72.33-29.85,9.14,.44,16.42,2.88,20.67,4.59"/>
    <path class="cls-1" d="M532.64,164.5c-.44-3.13-6.88-54.37,26.31-79.08,29.13-21.69,67.92-7.41,90.8,1.01,40.69,14.98,64.46,43.44,74.63,57.41"/>
    <path class="cls-1" d="M1056.18,93.32c8.82,6.59,21.38,17.98,29.85,35.59,20,41.58,1.56,85.3-4.59,99.89-18.01,42.69-50.87,69.71-50.52,70.04,.47,.42,38.44-61.73,99.89-74.63,9.89-2.07,39.15-7.79,64.3,8.04,18.55,11.67,26.41,29.75,34.44,48.22,17.03,39.14,8.81,57.57,26.41,80.37,11.84,15.34,27.69,22.73,37.89,26.41"/>
    <path class="cls-1" d="M1240.71,610.95c17.11-.29,30.2-.16,39,0,15.29,.28,28.17,.88,38.25-7.86,.71-.62,1.23-1.1,1.57-1.46,3.75-3.95,8.69-13.06,15.65-47.91,8.93-44.69,5.36-52.51,14.93-64.3,12.16-14.98,35.32-23.79,56.26-18.37,28.34,7.34,38.69,37.17,41.33,44.78,4.27,12.3,2.13,16.1-2.3,68.89-3.99,47.58-2.64,56.68-14.93,67.74-9.37,8.43-21.58,10.12-29.85,10.33"/>
    <path class="cls-1" d="M665.71,25.95c.91,22.95,1.82,45.9,2.72,68.84"/>
    <path class="cls-1" d="M724.74,289.71c30.7,17.46,51.25,36.68,63.93,50.45,6.87,7.46,14.95,16.34,22.96,29.85,14.02,23.64,18.82,46.26,20.67,60.85"/>
    <path class="cls-1" d="M606.12,591.61c-1.94-6.58-5.97-23.45,0-43.63,5.75-19.45,17.61-31.2,22.77-35.77"/>
    <path class="cls-1" d="M1020.59,56.58c15.11-4.5,40.25-9.91,71.18-6.89,36.04,3.52,62.69,16.81,76.92,25.26"/>
    <path class="cls-1" d="M1371.92,744.31c-1.46-6.73-12.02-51.97-53.96-72.33-18.25-8.86-35.52-9.65-45.92-9.19"/>
    <path class="cls-1" d="M1127.37,325.24c-8.46,10.08-17.86,23.03-26.41,39.04-13.34,24.98-19.73,48.22-22.96,65.44"/>
    <path class="cls-1" d="M1291.55,262.09c-3.51,7.57-8.32,16.26-14.93,25.26-12.07,16.43-25.43,27.45-35.59,34.44"/>
    <path class="cls-1" d="M1267.44,471.05c-3.15-.77-43.37-9.86-71.18,17.22-13.64,13.28-17.99,29.13-19.52,36.74"/>
    <path class="cls-1" d="M1051.59,711.01c.77-36.36,1.53-72.71,2.3-109.07"/>
    <path class="cls-1" d="M978.11,472.2c-4.29,1.24-11.81,4.09-18.55,10.84-13.11,13.11-12.77,30.42-12.64,33.8"/>
    <path class="cls-1" d="M927.59,781.05c22.2-15.31,44.39-30.62,66.59-45.93"/>
    <path class="cls-1" d="M1531.51,512.39c-27.17,5.38-54.34,10.76-81.51,16.13"/>
    <path class="cls-1" d="M1231.85,117.43c13.78,8.8,27.56,17.6,41.33,26.41"/>
  </g>
  <path class="cls-1" d="M1437.71,72.95c11.46,16.84,28.43,42.85,47,76,29.64,52.91,31.53,67.18,48,73,35.82,12.66,90.13-32.51,115-78,8.04-14.7,12.45-28.43,15-39"/>
  <path class="cls-1" d="M1649.71,406.95c-69.35-10.07-121.72-54.93-131-109-5.69-33.15,6.25-61.42,14-76"/>
  <path class="cls-1" d="M1354.71,211.95c26.64,15.47,56.86,29.36,68,19,15.97-14.86-14.12-73.31-15-73-.67,.23,15.95,33.84,32,100,11.08,45.67,12.91,69.84,32,103,9.63,16.72,19.84,29.11,27,37"/>
  <path class="cls-1" d="M1578.71,638.95c5.92,9.91,34.96,60.81,17,120-8.13,26.77-22.87,45.36-33,56"/>
  <path class="cls-1" d="M924.71,980.95c15.69-.06,50.12-2.44,84-25,16.84-11.21,28.44-24.01,36-34"/>
</svg>